<svg width="18" height="16" viewBox="0 0 18 16" fill="none" xmlns="http://www.w3.org/2000/svg">
<path d="M7.91167 14.6667H5.11588C4.01064 14.6667 3.13154 14.1653 2.34221 13.4644C0.726376 12.0294 3.37934 10.8827 4.39118 10.3211C6.21527 9.3086 8.41639 9.07454 10.4149 9.61874" stroke="black" stroke-width="1.5" stroke-linecap="round" stroke-linejoin="round"/>
<path d="M12.2029 4.33334C12.2029 5.9902 10.762 7.33334 8.98449 7.33334C7.20703 7.33334 5.76611 5.9902 5.76611 4.33334C5.76611 2.67649 7.20703 1.33334 8.98449 1.33334C10.762 1.33334 12.2029 2.67649 12.2029 4.33334Z" stroke="black" stroke-width="1.5"/>
<path d="M13.5855 9.23234C13.8253 8.99007 13.9452 8.869 14.0726 8.79834C14.3801 8.62787 14.7587 8.6226 15.0713 8.78434C15.2008 8.8514 15.3244 8.96914 15.5717 9.20447C15.8188 9.43987 15.9424 9.5576 16.0129 9.68094C16.1827 9.9786 16.1771 10.3391 15.9981 10.6319C15.924 10.7532 15.7968 10.8674 15.5424 11.0958L12.516 13.8129C12.0339 14.2457 11.7929 14.4621 11.4917 14.5718C11.1905 14.6815 10.8593 14.6734 10.197 14.6573L10.1069 14.6551C9.90531 14.6501 9.80454 14.6477 9.7459 14.5857C9.68732 14.5237 9.69533 14.4279 9.71128 14.2365L9.72001 14.1325C9.76507 13.5937 9.78752 13.3243 9.90045 13.0821C10.0133 12.8399 10.208 12.6433 10.5974 12.25L13.5855 9.23234Z" stroke="black" stroke-width="1.5" stroke-linejoin="round"/>
</svg>
