<svg width="20" height="18" viewBox="0 0 20 18" fill="none" xmlns="http://www.w3.org/2000/svg">
<path d="M2.41406 9C2.41406 5.64125 2.41406 3.96187 3.53345 2.91843C4.65284 1.875 6.45446 1.875 10.0577 1.875C13.6609 1.875 15.4626 1.875 16.582 2.91843C17.7013 3.96187 17.7013 5.64125 17.7013 9C17.7013 12.3587 17.7013 14.0381 16.582 15.0816C15.4626 16.125 13.6609 16.125 10.0577 16.125C6.45446 16.125 4.65284 16.125 3.53345 15.0816C2.41406 14.0381 2.41406 12.3587 2.41406 9Z" stroke="black" stroke-width="1.5"/>
<path d="M13.2756 9H6.83887M13.2756 9C13.2756 8.47485 11.671 7.49365 11.2641 7.125M13.2756 9C13.2756 9.52515 11.671 10.5064 11.2641 10.875" stroke="black" stroke-width="1.5" stroke-linecap="round" stroke-linejoin="round"/>
</svg>
