<svg width="32" height="32" viewBox="0 0 46 50" fill="none" xmlns="http://www.w3.org/2000/svg">
<line x1="0.5" x2="0.5" y2="50" stroke="#F87B76" stroke-opacity="0.7"/>
<path d="M29.9998 40.3334C37.3636 40.3334 43.3332 34.3638 43.3332 27C43.3332 19.6362 37.3636 13.6667 29.9998 13.6667C22.636 13.6667 16.6665 19.6362 16.6665 27C16.6665 34.3638 22.636 40.3334 29.9998 40.3334Z" stroke="#F87B76" stroke-opacity="0.7" stroke-width="1.5"/>
<path d="M24 33.6666C27.1089 30.4104 32.8576 30.257 36 33.6666M33.3268 23.6666C33.3268 25.5076 31.8323 27 29.9887 27C28.1452 27 26.6506 25.5076 26.6506 23.6666C26.6506 21.8257 28.1452 20.3333 29.9887 20.3333C31.8323 20.3333 33.3268 21.8257 33.3268 23.6666Z" stroke="#F87B76" stroke-opacity="0.7" stroke-width="1.5" stroke-linecap="round"/>
</svg>
