<?xml version="1.0" encoding="UTF-8"?>
<!DOCTYPE svg PUBLIC "-//W3C//DTD SVG 1.1//EN" "http://www.w3.org/Graphics/SVG/1.1/DTD/svg11.dtd">
<!-- Creator: CorelDRAW -->
<svg xmlns="http://www.w3.org/2000/svg" xml:space="preserve" width="2048px" height="2048px" style="shape-rendering:geometricPrecision; text-rendering:geometricPrecision; image-rendering:optimizeQuality; fill-rule:evenodd; clip-rule:evenodd"
viewBox="0 0 2048 2048"
 xmlns:xlink="http://www.w3.org/1999/xlink">
 <defs>
  <style type="text/css">
   <![CDATA[
    .fil2 {fill:none}
    .fil1 {fill:#AFB42B}
    .fil8 {fill:#BDC3C7}
    .fil7 {fill:#C0392B}
    .fil0 {fill:#D4E157}
    .fil9 {fill:#E74C3C}
    .fil10 {fill:#ECF0F1}
    .fil3 {fill:#FFE7BB}
    .fil6 {fill:#C0392B;fill-rule:nonzero}
    .fil4 {fill:#D81B60;fill-rule:nonzero}
    .fil5 {fill:#EF5350;fill-rule:nonzero}
    .fil11 {fill:#EF6C00;fill-rule:nonzero}
   ]]>
  </style>
   <clipPath id="id0">
    <path d="M1024 0c565.539,0 1024,458.461 1024,1024 0,565.539 -458.461,1024 -1024,1024 -565.539,0 -1024,-458.461 -1024,-1024 0,-565.539 458.461,-1024 1024,-1024z"/>
   </clipPath>
 </defs>
 <g id="Layer_x0020_1">
  <metadata id="CorelCorpID_0Corel-Layer"/>
  <path class="fil0" d="M1024 0c565.539,0 1024,458.461 1024,1024 0,565.539 -458.461,1024 -1024,1024 -565.539,0 -1024,-458.461 -1024,-1024 0,-565.539 458.461,-1024 1024,-1024z"/>
  <g style="clip-path:url(#id0)">
   <g id="_341191000">
    <g>
     <polygon id="_4558282001" class="fil1" points="1494.27,480.726 2630.15,1616.61 2631.66,1618.51 2632.98,1620.55 2634.08,1622.71 2634.97,1624.98 2635.62,1627.35 2636.01,1629.81 2636.15,1632.34 1500.27,496.457 1500.13,493.928 1499.73,491.472 1499.09,489.102 1498.2,486.831 1497.1,484.668 1495.78,482.63 "/>
     <polygon id="_455828272" class="fil1" points="1500.27,496.457 2636.15,1632.34 2636.12,1633.55 2636.03,1634.74 2635.88,1635.92 2635.67,1637.08 2635.4,1638.22 2635.08,1639.33 2634.71,1640.43 2634.28,1641.51 2633.81,1642.56 2633.28,1643.58 2632.71,1644.58 2632.09,1645.55 2631.42,1646.49 2630.71,1647.4 2629.96,1648.28 2629.17,1649.12 1493.29,513.243 1494.08,512.398 1494.83,511.522 1495.54,510.611 1496.21,509.671 1496.83,508.701 1497.4,507.702 1497.93,506.677 1498.4,505.626 1498.83,504.551 1499.2,503.452 1499.52,502.333 1499.79,501.193 1500,500.034 1500.15,498.858 1500.24,497.665 "/>
     <polygon id="_455829088" class="fil1" points="1500.27,513.243 2636.15,1649.12 2719.88,1900.25 1584,764.371 "/>
     <polygon id="_455830048" class="fil1" points="1584,764.371 2719.88,1900.25 2718.7,1900.25 1582.82,764.371 "/>
     <polygon id="_455830120" class="fil1" points="1582.82,764.371 2718.7,1900.25 2718.7,2019.96 2718.64,2022.79 2718.45,2025.59 2718.13,2028.35 2717.7,2031.08 2717.15,2033.77 2716.48,2036.42 2715.7,2039.02 2714.81,2041.57 2713.81,2044.07 2712.71,2046.52 2711.51,2048.91 2710.2,2051.24 2708.81,2053.51 2707.32,2055.72 2705.74,2057.85 2704.07,2059.92 2702.32,2061.91 2700.48,2063.83 2698.57,2065.67 2696.58,2067.42 2694.52,2069.1 2692.39,2070.68 2690.18,2072.17 2687.92,2073.58 2685.59,2074.88 2683.2,2076.09 2680.76,2077.2 2678.26,2078.2 2675.71,2079.1 2673.11,2079.88 2670.47,2080.56 2667.78,2081.12 1531.9,945.233 1534.59,944.675 1537.23,944 1539.83,943.214 1542.38,942.318 1544.88,941.316 1547.32,940.209 1549.71,939.001 1552.04,937.694 1554.3,936.292 1556.51,934.798 1558.64,933.213 1560.7,931.542 1562.69,929.786 1564.6,927.948 1566.44,926.031 1568.19,924.037 1569.86,921.972 1571.44,919.835 1572.93,917.63 1574.32,915.361 1575.62,913.029 1576.83,910.638 1577.93,908.19 1578.93,905.689 1579.82,903.137 1580.6,900.536 1581.27,897.89 1581.82,895.202 1582.25,892.472 1582.57,889.707 1582.76,886.907 1582.82,884.076 "/>
     <polygon id="_455829976" class="fil1" points="1531.9,945.233 2667.78,2081.12 2667.78,2379.11 1531.9,1243.23 "/>
     <polygon id="_455830168" class="fil1" points="1552.1,1258.5 2687.98,2394.38 2689.13,2395.66 2690.25,2396.96 2691.33,2398.29 2692.37,2399.64 2693.37,2401.02 2694.34,2402.42 2695.27,2403.84 2696.16,2405.29 2697.01,2406.75 2697.82,2408.24 2698.59,2409.75 2699.32,2411.27 2700,2412.82 2700.64,2414.39 2701.24,2415.97 2701.79,2417.57 2702.3,2419.19 2702.77,2420.83 2703.19,2422.48 2703.55,2424.15 2703.88,2425.83 2704.15,2427.53 2704.38,2429.25 2704.56,2430.97 2704.69,2432.71 2704.76,2434.46 2704.79,2436.23 1568.91,1300.35 1568.88,1298.58 1568.8,1296.83 1568.68,1295.09 1568.5,1293.36 1568.27,1291.65 1568,1289.95 1567.67,1288.27 1567.3,1286.6 1566.89,1284.95 1566.42,1283.31 1565.91,1281.69 1565.36,1280.09 1564.76,1278.51 1564.12,1276.94 1563.44,1275.39 1562.71,1273.86 1561.94,1272.36 1561.13,1270.87 1560.28,1269.4 1559.39,1267.96 1558.46,1266.54 1557.49,1265.14 1556.49,1263.76 1555.44,1262.41 1554.36,1261.08 1553.25,1259.78 "/>
     <polygon id="_455830000" class="fil1" points="1568.91,1300.35 2704.79,2436.23 2704.79,2646.25 1568.91,1510.37 "/>
     <polygon id="_455830240" class="fil1" points="1568.91,1510.37 2704.79,2646.25 2704.76,2648.02 2704.69,2649.77 2704.56,2651.51 2704.38,2653.23 2704.15,2654.95 2703.88,2656.64 2703.55,2658.33 2703.19,2660 2702.77,2661.65 2702.3,2663.29 2701.79,2664.91 2701.24,2666.51 2700.64,2668.09 2700,2669.66 2699.32,2671.21 2698.59,2672.73 2697.82,2674.24 2697.01,2675.73 2696.16,2677.19 2695.27,2678.64 2694.34,2680.06 2693.37,2681.46 2692.37,2682.84 2691.33,2684.19 2690.25,2685.52 2689.13,2686.82 2687.98,2688.1 2686.79,2689.35 2685.57,2690.58 2684.32,2691.78 2683.03,2692.95 2681.71,2694.09 1545.83,1558.21 1547.15,1557.07 1548.44,1555.89 1549.69,1554.7 1550.91,1553.47 1552.1,1552.22 1553.25,1550.94 1554.36,1549.64 1555.44,1548.31 1556.49,1546.95 1557.49,1545.58 1558.46,1544.18 1559.39,1542.76 1560.28,1541.31 1561.13,1539.85 1561.94,1538.36 1562.71,1536.85 1563.44,1535.32 1564.12,1533.78 1564.76,1532.21 1565.36,1530.63 1565.91,1529.02 1566.42,1527.41 1566.89,1525.77 1567.3,1524.11 1567.67,1522.45 1568,1520.76 1568.27,1519.06 1568.5,1517.35 1568.68,1515.62 1568.8,1513.89 1568.88,1512.13 "/>
     <polygon id="_455829664" class="fil1" points="1545.83,1558.21 2681.71,2694.09 2680.47,2695.12 2679.19,2696.13 2677.89,2697.11 2676.56,2698.07 2675.2,2699 2673.83,2699.9 2672.42,2700.77 2671,2701.62 2669.54,2702.43 2668.07,2703.22 2666.58,2703.98 2665.06,2704.71 2663.52,2705.4 2661.97,2706.07 2660.39,2706.7 2658.79,2707.3 2657.18,2707.87 2655.55,2708.41 2653.9,2708.91 2652.23,2709.38 2650.55,2709.81 2648.85,2710.21 2647.14,2710.58 2645.41,2710.9 2643.67,2711.19 2641.92,2711.45 2640.15,2711.66 2638.37,2711.84 2636.58,2711.98 2634.78,2712.08 2632.96,2712.14 2631.14,2712.16 1495.26,1576.28 1497.08,1576.26 1498.89,1576.2 1500.7,1576.09 1502.49,1575.96 1504.27,1575.78 1506.03,1575.56 1507.79,1575.31 1509.53,1575.02 1511.26,1574.69 1512.97,1574.33 1514.67,1573.93 1516.35,1573.5 1518.02,1573.03 1519.67,1572.53 1521.3,1571.99 1522.91,1571.42 1524.51,1570.82 1526.09,1570.19 1527.64,1569.52 1529.18,1568.82 1530.7,1568.1 1532.19,1567.34 1533.66,1566.55 1535.11,1565.73 1536.54,1564.89 1537.94,1564.02 1539.32,1563.11 1540.68,1562.19 1542.01,1561.23 1543.31,1560.25 1544.58,1559.24 "/>
     <polygon id="_455829568" class="fil1" points="516.102,945.439 1651.98,2081.32 1649.24,2080.81 1646.54,2080.17 1643.89,2079.42 1641.29,2078.55 1638.74,2077.58 1636.24,2076.49 1633.8,2075.3 1631.42,2074.01 1629.1,2072.62 1626.85,2071.14 1624.67,2069.56 1622.55,2067.89 1620.52,2066.13 484.637,930.246 486.674,932.004 488.784,933.674 490.967,935.254 493.218,936.74 495.535,938.13 497.917,939.421 500.357,940.611 502.855,941.695 505.407,942.67 508.011,943.536 510.663,944.287 513.362,944.923 "/>
     <polygon id="_455829832" class="fil1" points="552.737,1576.28 1688.62,2712.16 1686.8,2712.14 1684.99,2712.08 1683.18,2711.98 1681.39,2711.84 1679.61,2711.66 1677.85,2711.45 1676.09,2711.19 1674.35,2710.9 1672.62,2710.58 1670.91,2710.21 1669.21,2709.81 1667.53,2709.38 1665.86,2708.91 1664.21,2708.41 1662.58,2707.87 1660.97,2707.3 1659.37,2706.7 1657.79,2706.07 1656.24,2705.4 1654.7,2704.71 1653.18,2703.98 1651.69,2703.22 1650.22,2702.43 1648.77,2701.62 1647.34,2700.77 1645.94,2699.9 1644.56,2699 1643.2,2698.07 1641.87,2697.11 1640.57,2696.13 1639.3,2695.12 503.415,1559.24 504.69,1560.25 505.993,1561.23 507.322,1562.19 508.676,1563.11 510.055,1564.02 511.458,1564.89 512.886,1565.73 514.335,1566.55 515.808,1567.34 517.303,1568.1 518.82,1568.82 520.356,1569.52 521.913,1570.19 523.49,1570.82 525.087,1571.42 526.7,1571.99 528.332,1572.53 529.982,1573.03 531.649,1573.5 533.332,1573.93 535.029,1574.33 536.743,1574.69 538.47,1575.02 540.211,1575.31 541.966,1575.56 543.733,1575.78 545.511,1575.96 547.302,1576.09 549.104,1576.2 550.916,1576.26 "/>
     <polygon id="_455830960" class="fil1" points="1495.26,1576.28 2631.14,2712.16 1688.62,2712.16 552.737,1576.28 "/>
    </g>
    <path id="_341191072" class="fil1" d="M547.731 496.457c0,-13.6583 11.7638,-24.7311 26.2736,-24.7311l899.988 0c14.511,0 26.276,11.0728 26.276,24.7311 0,6.47953 -2.64803,12.3768 -6.98032,16.7858l6.98032 0 83.7331 251.129 -1.17874 0 0 119.705c0,30.3603 -22.0488,55.8189 -50.9233,61.1575l0 297.992c5.05748,2.60669 9.73702,5.72835 13.9335,9.27993 14.237,12.0461 23.074,28.963 23.074,47.8394l0 210.025c0,18.8776 -8.83701,35.7945 -23.074,47.8394 -13.1717,11.1461 -31.0902,18.0662 -50.5713,18.0662l-942.524 0c-19.4799,0 -37.3996,-6.92008 -50.5713,-18.0662 -14.237,-12.0449 -23.074,-28.9618 -23.074,-47.8394l0 -210.025c0,-18.8764 8.83701,-35.7933 23.0729,-47.8394 4.19882,-3.55158 8.87835,-6.67441 13.937,-9.27993l0 -297.787c-29.452,-4.85433 -52.1032,-30.5906 -52.1032,-61.363l0 -119.705 83.7331 -251.129 6.97914 0c-4.33229,-4.40906 -6.98032,-10.3063 -6.98032,-16.7858z"/>
   </g>
  </g>
  <path class="fil2" d="M1024 0c565.539,0 1024,458.461 1024,1024 0,565.539 -458.461,1024 -1024,1024 -565.539,0 -1024,-458.461 -1024,-1024 0,-565.539 458.461,-1024 1024,-1024z"/>
  <rect class="fil3" x="551.102" y="764.371" width="963.763" height="471.705"/>
  <polygon class="fil4" points="1026.01,1238.67 1026.01,1131.88 1026.01,1113.83 1044.06,1113.83 1230.85,1113.83 1248.9,1113.83 1248.9,1131.88 1248.9,1238.67 "/>
  <polygon class="fil4" points="799.097,1238.67 799.097,1148.22 799.097,1132.93 814.384,1132.93 972.597,1132.93 987.884,1132.93 987.884,1148.22 987.884,1238.67 "/>
  <polygon class="fil5" points="1531.9,855.317 1531.9,1366.27 1496.9,1366.27 1496.9,855.317 "/>
  <polygon class="fil5" points="551.102,855.317 551.102,1366.27 516.102,1366.27 516.102,855.317 "/>
  <path class="fil6" d="M574.006 471.726c-14.511,0 -26.2748,11.0728 -26.2748,24.7311 0,13.6571 11.7638,24.7299 26.2748,24.7299l899.987 0c14.511,0 26.2748,-11.0728 26.2748,-24.7299 0,-13.6583 -11.7638,-24.7311 -26.2748,-24.7311l-899.987 0z"/>
  <path class="fil7" d="M463.999 764.371l124.375 0 0 119.705c0,34.2036 -27.9839,62.1863 -62.1874,62.1863l0 0c-34.2024,0 -62.1874,-27.9827 -62.1874,-62.1863l0 -119.705z"/>
  <path class="fil8" d="M712.749 764.371l-124.375 0 0 119.705c0,34.2036 27.9851,62.1863 62.1886,62.1863l0 0c34.2024,0 62.1863,-27.9827 62.1863,-62.1863l0 -119.705z"/>
  <path class="fil7" d="M712.749 764.371l124.376 0 0 119.705c0,34.2036 -27.9851,62.1863 -62.1886,62.1863l0 0c-34.2024,0 -62.1874,-27.9827 -62.1874,-62.1863l0 -119.705z"/>
  <path class="fil8" d="M961.5 764.371l-124.375 0 0 119.705c0,34.2036 27.9839,62.1863 62.1874,62.1863l0 0c34.2024,0 62.1874,-27.9827 62.1874,-62.1863l0 -119.705z"/>
  <path class="fil7" d="M961.5 764.371l124.375 0 0 119.705c0,34.2036 -27.9851,62.1863 -62.1886,62.1863l0 0c-34.2024,0 -62.1863,-27.9827 -62.1863,-62.1863l0 -119.705z"/>
  <path class="fil8" d="M1210.25 764.371l-124.375 0 0 119.705c0,34.2036 27.9839,62.1863 62.1874,62.1863l0 0c34.2024,0 62.1874,-27.9827 62.1874,-62.1863l0 -119.705z"/>
  <path class="fil7" d="M1210.25 764.371l124.375 0 0 119.705c0,34.2036 -27.9851,62.1863 -62.1886,62.1863l0 0c-34.2024,0 -62.1863,-27.9827 -62.1863,-62.1863l0 -119.705z"/>
  <path class="fil8" d="M1459 764.371l-124.375 0 0 119.705c0,34.2036 27.9839,62.1863 62.1874,62.1863l0 0c34.2024,0 62.1874,-27.9827 62.1874,-62.1863l0 -119.705z"/>
  <polygon class="fil9" points="547.732,513.241 672.107,513.241 588.374,764.371 463.999,764.371 "/>
  <polygon class="fil10" points="672.657,513.241 797.032,513.241 713.3,764.371 588.924,764.371 "/>
  <polygon class="fil9" points="796.973,513.241 880.541,513.241 837.616,764.371 713.241,764.371 "/>
  <polygon class="fil10" points="1376.44,513.241 1252.07,513.241 1335.8,764.371 1460.18,764.371 "/>
  <polygon class="fil9" points="1251.52,513.241 1127.14,513.241 1210.88,764.371 1335.25,764.371 "/>
  <polygon class="fil10" points="1127.2,513.241 1044.02,513.241 1086.56,764.371 1210.94,764.371 "/>
  <polygon class="fil9" points="1044.83,513.241 961.651,513.241 962.255,764.371 1086.63,764.371 "/>
  <polygon class="fil10" points="878.468,513.241 961.651,513.241 961.046,764.371 836.671,764.371 "/>
  <path class="fil7" d="M1582.82 764.371l-124.375 0 0 119.705c0,34.2036 27.9839,62.1863 62.1874,62.1863l0 0c34.2024,0 62.1874,-27.9827 62.1874,-62.1863l0 -119.705z"/>
  <polygon class="fil9" points="1500.27,513.241 1375.89,513.241 1459.63,764.371 1584,764.371 "/>
  <path class="fil11" d="M552.737 1234.44l942.524 0c19.4811,0 37.3996,6.9189 50.5713,18.065 14.237,12.0461 23.074,28.963 23.074,47.8394l0 210.025c0,18.8776 -8.83701,35.7945 -23.074,47.8394 -13.1717,11.1461 -31.0902,18.0662 -50.5713,18.0662l-942.524 0c-19.4799,0 -37.3996,-6.92008 -50.5713,-18.0662 -14.237,-12.0449 -23.074,-28.9618 -23.074,-47.8394l0 -210.025c0,-18.8764 8.83701,-35.7933 23.0729,-47.8394 13.174,-11.1449 31.0914,-18.065 50.5725,-18.065z"/>
 </g>
</svg>
