<?xml version="1.0" encoding="UTF-8"?>
<!DOCTYPE svg PUBLIC "-//W3C//DTD SVG 1.1//EN" "http://www.w3.org/Graphics/SVG/1.1/DTD/svg11.dtd">
<!-- Creator: CorelDRAW -->
<svg xmlns="http://www.w3.org/2000/svg" xml:space="preserve" width="2048px" height="2048px" style="shape-rendering:geometricPrecision; text-rendering:geometricPrecision; image-rendering:optimizeQuality; fill-rule:evenodd; clip-rule:evenodd"
viewBox="0 0 2048 2048"
 xmlns:xlink="http://www.w3.org/1999/xlink">
 <defs>
  <style type="text/css">
   <![CDATA[
    .fil2 {fill:none}
    .fil3 {fill:#6D4C41}
    .fil5 {fill:#81D4FA}
    .fil1 {fill:#90A4AE}
    .fil0 {fill:#B0BEC5}
    .fil8 {fill:#BDC3C7}
    .fil7 {fill:#C0392B}
    .fil9 {fill:#E74C3C}
    .fil10 {fill:#ECF0F1}
    .fil6 {fill:#039BE5;fill-rule:nonzero}
    .fil4 {fill:#C0392B;fill-rule:nonzero}
   ]]>
  </style>
   <clipPath id="id0">
    <path d="M1024 0c565.539,0 1024,458.461 1024,1024 0,565.539 -458.461,1024 -1024,1024 -565.539,0 -1024,-458.461 -1024,-1024 0,-565.539 458.461,-1024 1024,-1024z"/>
   </clipPath>
 </defs>
 <g id="Layer_x0020_1">
  <metadata id="CorelCorpID_0Corel-Layer"/>
  <path class="fil0" d="M1024 0c565.539,0 1024,458.461 1024,1024 0,565.539 -458.461,1024 -1024,1024 -565.539,0 -1024,-458.461 -1024,-1024 0,-565.539 458.461,-1024 1024,-1024z"/>
  <g style="clip-path:url(#id0)">
   <g id="_341207560">
    <g>
     <polygon id="_3329211841" class="fil1" points="1494.27,488.454 2630.15,1624.34 2631.66,1626.24 2632.98,1628.28 2634.08,1630.44 2634.97,1632.71 2635.62,1635.08 2636.01,1637.54 2636.15,1640.07 1500.27,504.185 1500.13,501.656 1499.73,499.2 1499.09,496.831 1498.2,494.559 1497.1,492.397 1495.78,490.357 "/>
     <polygon id="_332922216" class="fil1" points="1500.27,504.185 2636.15,1640.07 2636.12,1641.28 2636.03,1642.47 2635.88,1643.64 2635.67,1644.8 2635.4,1645.94 2635.08,1647.06 2634.71,1648.16 2634.28,1649.24 2633.81,1650.29 2633.28,1651.31 2632.71,1652.31 2632.09,1653.28 2631.42,1654.22 2630.71,1655.13 2629.96,1656.01 2629.17,1656.85 1493.29,520.97 1494.08,520.126 1494.83,519.25 1495.54,518.339 1496.21,517.399 1496.83,516.429 1497.4,515.43 1497.93,514.405 1498.4,513.354 1498.83,512.279 1499.2,511.18 1499.52,510.061 1499.79,508.921 1500,507.762 1500.15,506.586 1500.24,505.393 "/>
     <polygon id="_332922336" class="fil1" points="1500.27,520.97 2636.15,1656.85 2719.88,1907.98 1584,772.1 "/>
     <polygon id="_332922264" class="fil1" points="1584,772.1 2719.88,1907.98 2718.7,1907.98 1582.82,772.1 "/>
     <polygon id="_332921616" class="fil1" points="1582.82,772.1 2718.7,1907.98 2718.7,2027.69 2718.62,2030.87 2718.38,2034.02 2717.98,2037.12 2717.43,2040.18 2716.74,2043.18 2715.9,2046.13 2714.91,2049.01 2713.8,2051.83 2712.55,2054.58 2711.17,2057.26 2709.67,2059.87 2708.05,2062.39 2706.31,2064.83 2704.46,2067.18 2702.5,2069.44 2700.44,2071.61 2698.27,2073.67 2696.01,2075.63 2693.66,2077.48 2691.22,2079.22 2688.7,2080.84 2686.09,2082.34 2683.41,2083.72 2680.66,2084.97 2677.84,2086.08 2674.96,2087.07 2672.01,2087.91 2669.01,2088.6 2665.95,2089.15 2662.85,2089.55 2659.7,2089.79 2656.52,2089.87 2656.26,2089.87 2656.01,2089.87 2655.75,2089.87 2655.5,2089.87 2655.25,2089.86 2654.99,2089.85 2654.74,2089.85 2654.49,2089.84 1518.61,953.958 1518.86,953.966 1519.11,953.972 1519.36,953.978 1519.62,953.983 1519.87,953.987 1520.13,953.989 1520.38,953.991 1520.64,953.991 1523.82,953.91 1526.97,953.669 1530.07,953.271 1533.13,952.722 1536.13,952.025 1539.07,951.184 1541.96,950.202 1544.78,949.084 1547.53,947.834 1550.21,946.457 1552.82,944.955 1555.34,943.333 1557.78,941.594 1560.13,939.745 1562.39,937.787 1564.55,935.723 1566.62,933.561 1568.58,931.301 1570.43,928.95 1572.16,926.511 1573.79,923.987 1575.29,921.382 1576.67,918.702 1577.91,915.949 1579.03,913.129 1580.01,910.243 1580.86,907.298 1581.55,904.295 1582.1,901.241 1582.5,898.138 1582.74,894.99 1582.82,891.803 "/>
     <polygon id="_332922192" class="fil1" points="1518.61,953.958 2654.49,2089.84 2654.49,2704.43 1518.61,1568.55 "/>
     <polygon id="_332922096" class="fil1" points="529.393,953.909 1665.27,2089.79 1664.88,2089.81 1664.48,2089.83 1664.08,2089.84 1663.68,2089.85 1663.27,2089.86 1662.87,2089.87 1662.47,2089.87 1662.07,2089.87 1658.88,2089.79 1655.73,2089.55 1652.63,2089.15 1649.57,2088.6 1646.57,2087.91 1643.63,2087.07 1640.74,2086.08 1637.92,2084.97 1635.17,2083.72 1632.49,2082.34 1629.88,2080.84 1627.36,2079.22 1624.92,2077.48 1622.57,2075.63 1620.31,2073.67 484.43,937.787 486.689,939.745 489.039,941.594 491.48,943.333 494.004,944.955 496.608,946.457 499.288,947.834 502.04,949.084 504.861,950.202 507.747,951.184 510.693,952.025 513.694,952.722 516.749,953.271 519.852,953.669 522.998,953.91 526.186,953.991 526.589,953.99 526.992,953.987 527.393,953.979 527.795,953.971 528.195,953.959 528.595,953.945 528.995,953.929 "/>
     <polygon id="_332921664" class="fil1" points="899.555,1568.55 2035.44,2704.43 1734.6,2704.43 598.72,1568.55 "/>
     <polygon id="_332921928" class="fil1" points="598.72,1568.55 1734.6,2704.43 1665.27,2704.43 529.393,1568.55 "/>
     <polygon id="_332921760" class="fil1" points="1518.61,1568.55 2654.49,2704.43 2035.44,2704.43 899.555,1568.55 "/>
    </g>
    <path id="_341207752" class="fil1" d="M574.004 479.455l899.988 0c14.511,0 26.276,11.0717 26.276,24.7299 0,6.47953 -2.64685,12.3768 -6.97914,16.7858l6.97914 0 83.7331 251.13 -1.17874 0 0 119.702c0,34.2036 -27.9851,62.1886 -62.1874,62.1886 -0.679134,0 -1.35591,-0.0106299 -2.02914,-0.0330709l0 614.587 -619.05 0 -300.835 0 -69.3272 0 0 -614.637c-1.06181,0.0555119 -2.13189,0.0826772 -3.2067,0.0826772 -34.2024,0 -62.1874,-27.9851 -62.1874,-62.1886l0 -119.702 83.7331 -251.13 6.97796 0c-4.33229,-4.40906 -6.97914,-10.3063 -6.97914,-16.7858 0,-13.6583 11.7638,-24.7299 26.2736,-24.7299z"/>
   </g>
  </g>
  <path class="fil2" d="M1024 0c565.539,0 1024,458.461 1024,1024 0,565.539 -458.461,1024 -1024,1024 -565.539,0 -1024,-458.461 -1024,-1024 0,-565.539 458.461,-1024 1024,-1024z"/>
  <polygon class="fil3" points="1518.61,875.872 1518.61,1568.55 529.393,1568.55 529.393,875.872 "/>
  <path class="fil4" d="M574.006 479.455c-14.511,0 -26.2748,11.0728 -26.2748,24.7299 0,13.6583 11.7638,24.7311 26.2748,24.7311l899.987 0c14.511,0 26.2748,-11.0728 26.2748,-24.7311 0,-13.6571 -11.7638,-24.7299 -26.2748,-24.7299l-899.987 0z"/>
  <polygon class="fil5" points="598.72,1037.47 899.555,1037.47 899.555,1568.55 598.72,1568.55 "/>
  <polygon class="fil5" points="979.671,1037.47 1411.21,1037.47 1411.21,1434.9 979.671,1434.9 "/>
  <path class="fil6" d="M1356.17 1176.24c4.82835,-4.82717 4.82835,-12.6579 0,-17.4851 -4.82717,-4.82835 -12.6579,-4.82835 -17.4851,0l-210.207 210.207c-4.82717,4.82717 -4.82717,12.6579 0,17.4851 4.82835,4.82717 12.6579,4.82717 17.4851,0l210.207 -210.207z"/>
  <path class="fil6" d="M1361.77 1271.62c4.82717,-4.82835 4.82717,-12.6579 0,-17.4851 -4.82835,-4.82835 -12.6579,-4.82835 -17.4851,0l-111.287 111.287c-4.82835,4.82717 -4.82835,12.6567 0,17.4851 4.82717,4.82717 12.6567,4.82717 17.4851,0l111.287 -111.287z"/>
  <polygon class="fil6" points="863.781,1219.24 863.781,1299.99 839.05,1299.99 839.05,1219.24 "/>
  <path class="fil6" d="M851.415 1286.46c6.4193,0 12.2327,2.60197 16.441,6.81024 4.20827,4.20827 6.81142,10.0217 6.81142,16.441 0,6.4193 -2.60315,12.2315 -6.81142,16.4398 -4.20827,4.20827 -10.0217,6.81142 -16.441,6.81142 -6.4193,0 -12.2315,-2.60315 -16.4398,-6.81142 -4.20827,-4.20827 -6.81142,-10.0205 -6.81142,-16.4398 0,-6.4193 2.60315,-12.2327 6.81142,-16.441 4.20827,-4.20827 10.0205,-6.81024 16.4398,-6.81024z"/>
  <path class="fil6" d="M851.415 1195.21c6.4193,0 12.2327,2.60315 16.441,6.81142 4.20827,4.20827 6.81142,10.0205 6.81142,16.4398 0,6.42048 -2.60315,12.2327 -6.81142,16.441 -4.20827,4.20709 -10.0217,6.81024 -16.441,6.81024 -6.4193,0 -12.2315,-2.60315 -16.4398,-6.81024 -4.20827,-4.20827 -6.81142,-10.0205 -6.81142,-16.441 0,-6.4193 2.60315,-12.2315 6.81142,-16.4398 4.20827,-4.20827 10.0205,-6.81142 16.4398,-6.81142z"/>
  <path class="fil7" d="M463.999 772.1l124.375 0 0 119.702c0,34.2036 -27.9839,62.1886 -62.1874,62.1886l0 0c-34.2024,0 -62.1874,-27.9851 -62.1874,-62.1886l0 -119.702z"/>
  <path class="fil8" d="M712.749 772.1l-124.375 0 0 119.702c0,34.2036 27.9851,62.1886 62.1886,62.1886l0 0c34.2024,0 62.1863,-27.9851 62.1863,-62.1886l0 -119.702z"/>
  <path class="fil7" d="M712.749 772.1l124.376 0 0 119.702c0,34.2036 -27.9851,62.1886 -62.1886,62.1886l0 0c-34.2024,0 -62.1874,-27.9851 -62.1874,-62.1886l0 -119.702z"/>
  <path class="fil8" d="M961.5 772.1l-124.375 0 0 119.702c0,34.2036 27.9839,62.1886 62.1874,62.1886l0 0c34.2024,0 62.1874,-27.9851 62.1874,-62.1886l0 -119.702z"/>
  <path class="fil7" d="M961.5 772.1l124.375 0 0 119.702c0,34.2036 -27.9851,62.1886 -62.1886,62.1886l0 0c-34.2024,0 -62.1863,-27.9851 -62.1863,-62.1886l0 -119.702z"/>
  <path class="fil8" d="M1210.25 772.1l-124.375 0 0 119.702c0,34.2036 27.9839,62.1886 62.1874,62.1886l0 0c34.2024,0 62.1874,-27.9851 62.1874,-62.1886l0 -119.702z"/>
  <path class="fil7" d="M1210.25 772.1l124.375 0 0 119.702c0,34.2036 -27.9851,62.1886 -62.1886,62.1886l0 0c-34.2024,0 -62.1863,-27.9851 -62.1863,-62.1886l0 -119.702z"/>
  <path class="fil8" d="M1459 772.1l-124.375 0 0 119.702c0,34.2036 27.9839,62.1886 62.1874,62.1886l0 0c34.2024,0 62.1874,-27.9851 62.1874,-62.1886l0 -119.702z"/>
  <polygon class="fil9" points="547.732,520.97 672.107,520.97 588.374,772.1 463.999,772.1 "/>
  <polygon class="fil10" points="672.657,520.97 797.032,520.97 713.3,772.1 588.924,772.1 "/>
  <polygon class="fil9" points="796.973,520.97 880.541,520.97 837.616,772.1 713.241,772.1 "/>
  <polygon class="fil10" points="1376.44,520.97 1252.07,520.97 1335.8,772.1 1460.18,772.1 "/>
  <polygon class="fil9" points="1251.52,520.97 1127.14,520.97 1210.88,772.1 1335.25,772.1 "/>
  <polygon class="fil10" points="1127.2,520.97 1044.02,520.97 1086.56,772.1 1210.94,772.1 "/>
  <polygon class="fil9" points="1044.83,520.97 961.651,520.97 962.255,772.1 1086.63,772.1 "/>
  <polygon class="fil10" points="878.468,520.97 961.651,520.97 961.046,772.1 836.671,772.1 "/>
  <path class="fil7" d="M1582.82 772.1l-124.375 0 0 119.702c0,34.2036 27.9839,62.1886 62.1874,62.1886l0 0c34.2024,0 62.1874,-27.9851 62.1874,-62.1886l0 -119.702z"/>
  <polygon class="fil9" points="1500.27,520.97 1375.89,520.97 1459.63,772.1 1584,772.1 "/>
 </g>
</svg>
